<svg width="1000" height="1000" viewBox="0 0 1000 1000" fill="none" xmlns="http://www.w3.org/2000/svg">
<g clip-path="url(#clip0_35_6)">
<rect width="1000" height="1000" fill="#111011"/>
<line x1="145.5" x2="145.5" y2="1000" stroke="#B5ABAB" stroke-opacity="0.7"/>
<line x1="487.5" x2="487.5" y2="1000" stroke="#B5ABAB" stroke-opacity="0.7"/>
<line x1="829.5" x2="829.5" y2="1000" stroke="#B5ABAB" stroke-opacity="0.7"/>
<line x1="-11.9923" y1="99.5" x2="988.008" y2="99.5" stroke="#B5ABAB" stroke-opacity="0.7"/>
<line x1="-11.9923" y1="99.5" x2="988.008" y2="99.5" stroke="#B5ABAB" stroke-opacity="0.7"/>
<line x1="-11.9923" y1="202.5" x2="988.008" y2="202.5" stroke="#B5ABAB" stroke-opacity="0.7"/>
<line x1="-11.9923" y1="309.5" x2="988.008" y2="309.5" stroke="#B5ABAB" stroke-opacity="0.7"/>
<line x1="-11.9923" y1="416.5" x2="988.008" y2="416.5" stroke="#B5ABAB" stroke-opacity="0.7"/>
<line x1="-11.9923" y1="523.5" x2="988.008" y2="523.5" stroke="#B5ABAB" stroke-opacity="0.7"/>
<line x1="-11.9923" y1="630.5" x2="988.008" y2="630.5" stroke="#B5ABAB" stroke-opacity="0.7"/>
<line x1="-12" y1="837.5" x2="988" y2="837.5" stroke="#B5ABAB" stroke-opacity="0.7"/>
<line x1="-11.9923" y1="737.5" x2="988.008" y2="737.5" stroke="#B5ABAB" stroke-opacity="0.7"/>
<line x1="-12" y1="944.5" x2="988" y2="944.5" stroke="#B5ABAB" stroke-opacity="0.7"/>
<line x1="259.5" x2="259.5" y2="1000" stroke="#B5ABAB" stroke-opacity="0.7"/>
<line x1="601.5" x2="601.5" y2="1000" stroke="#B5ABAB" stroke-opacity="0.7"/>
<line x1="943.5" x2="943.5" y2="1000" stroke="#B5ABAB" stroke-opacity="0.7"/>
<line x1="373.5" x2="373.5" y2="1000" stroke="#B5ABAB" stroke-opacity="0.7"/>
<line x1="715.5" x2="715.5" y2="1000" stroke="#B5ABAB" stroke-opacity="0.7"/>
<path d="M487 228.448C485.774 228.448 484.539 228.168 483.404 227.616L399.041 186.624C396.21 185.25 394.408 182.37 394.408 179.226C394.408 176.082 396.21 173.202 399.041 171.827L483.404 130.827C485.667 129.724 488.333 129.724 490.596 130.827L574.959 171.827C577.79 173.202 579.592 176.082 579.592 179.226C579.592 182.37 577.79 185.25 574.959 186.624L490.596 227.616C489.461 228.176 488.226 228.448 487 228.448ZM421.467 179.226L487 211.075L552.533 179.226L487 147.377L421.467 179.226Z" fill="url(#paint0_linear_35_6)" fill-opacity="0.7"/>
<path d="M487 329.047C485.774 329.047 484.539 328.767 483.404 328.216L399.041 287.224C396.21 285.85 394.408 282.969 394.408 279.825V179.226C394.408 176.387 395.865 173.753 398.268 172.247C400.679 170.733 403.691 170.585 406.234 171.819L487 211.075L567.758 171.827C570.317 170.593 573.329 170.749 575.724 172.255C578.127 173.761 579.592 176.395 579.592 179.234V279.825C579.592 282.977 577.79 285.85 574.959 287.224L490.596 328.216C489.461 328.767 488.226 329.047 487 329.047ZM410.867 274.665L487 311.666L563.133 274.665V192.369L490.596 227.616C488.333 228.719 485.667 228.719 483.404 227.616L410.867 192.377V274.665Z" fill="url(#paint1_linear_35_6)" fill-opacity="0.7"/>
<path d="M487 770.068C485.774 770.068 484.539 769.796 483.404 769.236L399.041 728.244C396.21 726.87 394.408 723.99 394.408 720.846C394.408 717.702 396.21 714.822 399.041 713.447L483.404 672.455C485.667 671.344 488.333 671.344 490.596 672.455L574.959 713.447C577.79 714.822 579.592 717.702 579.592 720.846C579.592 723.99 577.79 726.87 574.959 728.244L490.596 769.236C489.461 769.796 488.226 770.068 487 770.068ZM421.467 720.846L487 752.687L552.533 720.846L487 689.005L421.467 720.846Z" fill="url(#paint2_linear_35_6)" fill-opacity="0.7"/>
<path d="M487 870.667C485.774 870.667 484.539 870.396 483.404 869.836L399.041 828.844C396.21 827.47 394.408 824.589 394.408 821.446V720.846C394.408 718.007 395.865 715.373 398.268 713.867C400.679 712.361 403.691 712.205 406.234 713.439L487 752.687L567.758 713.439C570.317 712.213 573.329 712.353 575.724 713.867C578.127 715.373 579.592 718.007 579.592 720.846V821.446C579.592 824.597 577.79 827.47 574.959 828.844L490.596 869.836C489.461 870.396 488.226 870.667 487 870.667ZM410.867 816.294L487 853.286L563.133 816.294V733.997L490.596 769.245C488.333 770.356 485.667 770.356 483.404 769.245L410.867 733.997V816.294Z" fill="url(#paint3_linear_35_6)" fill-opacity="0.7"/>
<path d="M227.592 646.474C226.366 646.474 225.131 646.203 223.996 645.643L139.633 604.643C136.802 603.268 135 600.388 135 597.244C135 594.101 136.802 591.22 139.633 589.846L223.996 548.854C226.259 547.743 228.925 547.743 231.189 548.854L315.551 589.846C318.382 591.22 320.184 594.101 320.184 597.244C320.184 600.388 318.382 603.268 315.551 604.643L231.189 645.643C230.053 646.203 228.818 646.474 227.592 646.474ZM162.059 597.236L227.592 629.085L293.125 597.236L227.592 565.395L162.059 597.236Z" fill="url(#paint4_linear_35_6)" fill-opacity="0.7"/>
<path d="M227.592 747.058C226.366 747.058 225.131 746.786 223.996 746.226L139.633 705.234C136.802 703.86 135 700.98 135 697.836V597.236C135 594.397 136.457 591.763 138.868 590.257C141.271 588.743 144.283 588.587 146.826 589.83L227.592 629.085L308.358 589.83C310.901 588.587 313.913 588.743 316.316 590.257C318.719 591.763 320.184 594.397 320.184 597.236V697.836C320.184 700.988 318.382 703.86 315.551 705.234L231.189 746.235C230.053 746.786 228.818 747.058 227.592 747.058ZM151.459 692.684L227.592 729.677L303.725 692.684V610.387L231.189 645.643C228.925 646.754 226.259 646.754 223.996 645.643L151.459 610.387V692.684Z" fill="url(#paint5_linear_35_6)" fill-opacity="0.7"/>
<path d="M746.408 646.474C745.182 646.474 743.947 646.203 742.803 645.643L658.441 604.643C655.61 603.268 653.807 600.388 653.807 597.244C653.807 594.101 655.61 591.22 658.441 589.846L742.803 548.854C745.083 547.743 747.725 547.743 750.004 548.854L834.358 589.846C837.189 591.22 838.992 594.101 838.992 597.244C838.992 600.388 837.189 603.268 834.358 604.643L750.004 645.643C748.869 646.203 747.642 646.474 746.408 646.474ZM680.883 597.236L746.416 629.085L811.949 597.236L746.416 565.395L680.883 597.236Z" fill="url(#paint6_linear_35_6)" fill-opacity="0.7"/>
<path d="M746.408 747.058C745.182 747.058 743.947 746.786 742.803 746.226L658.441 705.234C655.61 703.86 653.807 700.98 653.807 697.836V597.236C653.807 594.397 655.272 591.763 657.675 590.257C660.078 588.743 663.091 588.587 665.642 589.83L746.4 629.085L827.158 589.83C829.717 588.595 832.729 588.751 835.124 590.257C837.527 591.763 838.992 594.397 838.992 597.236V697.836C838.992 700.988 837.189 703.86 834.358 705.234L750.004 746.226C748.869 746.786 747.642 747.058 746.408 747.058ZM670.283 692.684L746.416 729.677L822.541 692.684V610.387L750.012 645.643C747.733 646.754 745.091 646.754 742.811 645.643L670.283 610.387V692.684Z" fill="url(#paint7_linear_35_6)" fill-opacity="0.7"/>
<path d="M227.592 352.057C226.366 352.057 225.131 351.778 223.996 351.226L139.633 310.226C136.802 308.852 135 305.971 135 302.827C135 299.684 136.802 296.803 139.633 295.429L223.996 254.437C226.259 253.334 228.925 253.334 231.189 254.437L315.551 295.429C318.382 296.803 320.184 299.684 320.184 302.827C320.184 305.971 318.382 308.852 315.551 310.226L231.189 351.226C230.053 351.778 228.818 352.057 227.592 352.057ZM162.059 302.827L227.592 334.676L293.125 302.827L227.592 270.979L162.059 302.827Z" fill="url(#paint8_linear_35_6)" fill-opacity="0.7"/>
<path d="M227.592 452.649C226.366 452.649 225.131 452.369 223.996 451.818L139.633 410.826C136.802 409.451 135 406.571 135 403.427V302.828C135 299.988 136.457 297.355 138.868 295.849C141.271 294.343 144.283 294.186 146.826 295.421L227.592 334.676L308.358 295.421C310.901 294.178 313.913 294.343 316.316 295.849C318.719 297.355 320.184 299.988 320.184 302.828V403.427C320.184 406.579 318.382 409.451 315.551 410.826L231.189 451.818C230.053 452.369 228.818 452.649 227.592 452.649ZM151.459 398.275L227.592 435.276L303.725 398.275V315.979L231.189 351.235C228.925 352.337 226.259 352.337 223.996 351.235L151.459 315.979V398.275Z" fill="url(#paint9_linear_35_6)" fill-opacity="0.7"/>
<path d="M746.408 352.057C745.182 352.057 743.947 351.778 742.803 351.226L658.449 310.226C655.618 308.852 653.816 305.971 653.816 302.827C653.816 299.684 655.618 296.803 658.449 295.429L742.812 254.437C745.091 253.334 747.733 253.334 750.012 254.437L834.367 295.429C837.198 296.803 839 299.684 839 302.827C839 305.971 837.198 308.852 834.367 310.226L750.012 351.226C748.869 351.778 747.642 352.057 746.408 352.057ZM680.883 302.827L746.416 334.676L811.941 302.827L746.416 270.979L680.883 302.827Z" fill="url(#paint10_linear_35_6)" fill-opacity="0.7"/>
<path d="M746.408 452.649C745.182 452.649 743.947 452.369 742.803 451.818L658.441 410.826C655.61 409.451 653.807 406.571 653.807 403.427V302.828C653.807 299.988 655.272 297.355 657.675 295.849C660.078 294.343 663.091 294.186 665.642 295.421L746.4 334.676L827.158 295.421C829.717 294.195 832.729 294.351 835.124 295.849C837.527 297.355 838.992 299.988 838.992 302.828V403.427C838.992 406.579 837.189 409.451 834.358 410.826L750.004 451.818C748.869 452.369 747.642 452.649 746.408 452.649ZM670.283 398.275L746.416 435.276L822.541 398.275V315.979L750.012 351.226C747.733 352.329 745.091 352.329 742.811 351.226L670.283 315.97V398.275Z" fill="url(#paint11_linear_35_6)" fill-opacity="0.7"/>
<path d="M402.63 741.28C401.321 741.28 399.988 740.968 398.753 740.309L308.07 691.738C304.063 689.59 302.557 684.603 304.704 680.595C306.844 676.595 311.84 675.089 315.847 677.229L406.53 725.8C410.538 727.948 412.044 732.936 409.896 736.943C408.407 739.709 405.567 741.28 402.63 741.28Z" fill="url(#paint12_linear_35_6)" fill-opacity="0.7"/>
<path d="M227.592 564.474C223.05 564.474 219.363 560.795 219.363 556.244V444.419C219.363 439.877 223.05 436.19 227.592 436.19C232.135 436.19 235.822 439.877 235.822 444.419V556.244C235.822 560.795 232.135 564.474 227.592 564.474Z" fill="url(#paint13_linear_35_6)" fill-opacity="0.7"/>
<path d="M311.963 324.414C309.025 324.414 306.186 322.842 304.704 320.069C302.557 316.061 304.063 311.074 308.07 308.926L398.753 260.346C402.761 258.206 407.748 259.712 409.896 263.712C412.044 267.72 410.538 272.707 406.53 274.855L315.847 323.435C314.605 324.101 313.272 324.414 311.963 324.414Z" fill="url(#paint14_linear_35_6)" fill-opacity="0.7"/>
<path d="M662.045 324.414C660.737 324.414 659.404 324.101 658.161 323.435L567.47 274.855C563.47 272.707 561.956 267.72 564.104 263.712C566.252 259.712 571.247 258.19 575.247 260.346L665.938 308.926C669.938 311.074 671.452 316.061 669.304 320.069C667.823 322.842 664.975 324.414 662.045 324.414Z" fill="url(#paint15_linear_35_6)" fill-opacity="0.7"/>
<path d="M746.408 564.474C741.857 564.474 738.178 560.795 738.178 556.244V444.419C738.178 439.877 741.857 436.19 746.408 436.19C750.959 436.19 754.638 439.877 754.638 444.419V556.244C754.638 560.795 750.959 564.474 746.408 564.474Z" fill="url(#paint16_linear_35_6)" fill-opacity="0.7"/>
<path d="M571.371 741.28C568.433 741.28 565.593 739.709 564.104 736.935C561.956 732.936 563.47 727.94 567.478 725.792L658.169 677.221C662.16 675.081 667.164 676.595 669.312 680.595C671.46 684.594 669.946 689.59 665.938 691.738L575.247 740.309C574.012 740.968 572.679 741.28 571.371 741.28Z" fill="url(#paint17_linear_35_6)" fill-opacity="0.7"/>
<path d="M487 640.22C479.692 640.22 472.392 638.335 465.874 634.574L381.306 585.756C368.279 578.218 360.181 564.202 360.181 549.159V451.505C360.181 436.453 368.27 422.43 381.306 414.908L465.874 366.081C478.91 358.567 495.098 358.559 508.134 366.081L592.694 414.908C605.73 422.43 613.819 436.453 613.819 451.505V549.15C613.819 564.194 605.73 578.218 592.694 585.748L508.134 634.574C501.608 638.344 494.308 640.22 487 640.22ZM487 376.895C482.539 376.895 478.079 378.039 474.104 380.335L389.536 429.162C381.586 433.754 376.64 442.313 376.64 451.497V549.142C376.64 558.326 381.586 566.885 389.536 571.486L474.096 620.312C482.054 624.913 491.938 624.913 499.896 620.312L584.456 571.486C592.414 566.885 597.352 558.326 597.352 549.142V451.505C597.352 442.321 592.406 433.754 584.456 429.17L499.896 380.343C495.921 378.047 491.46 376.895 487 376.895Z" fill="url(#paint18_linear_35_6)" fill-opacity="0.7"/>
<path d="M541.147 449.134C530.916 444.338 520.093 440.93 508.963 439C507.577 441.511 505.957 444.889 504.84 447.576C492.84 445.768 480.951 445.768 469.171 447.576C468.055 444.89 466.399 441.511 465 439C453.859 440.93 443.027 444.347 432.791 449.159C412.423 479.999 406.902 510.073 409.662 539.72C423.172 549.829 436.263 555.969 449.135 559.988C452.333 555.58 455.161 550.914 457.588 546.036C452.967 544.274 448.512 542.101 444.276 539.545C445.391 538.717 446.479 537.854 447.54 536.958C473.208 548.987 501.098 548.987 526.46 536.958C527.525 537.848 528.613 538.711 529.723 539.545C525.48 542.108 521.017 544.285 516.386 546.049C518.828 550.946 521.65 555.617 524.84 560C537.724 555.982 550.828 549.842 564.337 539.72C567.576 505.352 558.804 475.554 541.147 449.133V449.134ZM461.086 521.488C453.38 521.488 447.061 514.28 447.061 505.502C447.061 496.725 453.245 489.505 461.086 489.505C468.926 489.505 475.245 496.712 475.11 505.502C475.123 514.28 468.926 521.488 461.086 521.488ZM512.914 521.488C505.208 521.488 498.889 514.28 498.889 505.502C498.889 496.725 505.073 489.505 512.914 489.505C520.754 489.505 527.073 496.712 526.938 505.502C526.938 514.28 520.754 521.488 512.914 521.488Z" fill="url(#paint19_linear_35_6)" fill-opacity="0.7"/>
</g>
<defs>
<linearGradient id="paint0_linear_35_6" x1="392.567" y1="130.266" x2="463.886" y2="283.137" gradientUnits="userSpaceOnUse">
<stop stop-color="#DBFD00"/>
<stop offset="1" stop-color="#DBFD00" stop-opacity="0.56"/>
</linearGradient>
<linearGradient id="paint1_linear_35_6" x1="392.567" y1="171.418" x2="535.963" y2="362.864" gradientUnits="userSpaceOnUse">
<stop stop-color="#DBFD00"/>
<stop offset="1" stop-color="#DBFD00" stop-opacity="0.56"/>
</linearGradient>
<linearGradient id="paint2_linear_35_6" x1="392.567" y1="671.888" x2="463.884" y2="824.757" gradientUnits="userSpaceOnUse">
<stop stop-color="#DBFD00"/>
<stop offset="1" stop-color="#DBFD00" stop-opacity="0.56"/>
</linearGradient>
<linearGradient id="paint3_linear_35_6" x1="392.567" y1="713.041" x2="535.959" y2="904.486" gradientUnits="userSpaceOnUse">
<stop stop-color="#DBFD00"/>
<stop offset="1" stop-color="#DBFD00" stop-opacity="0.56"/>
</linearGradient>
<linearGradient id="paint4_linear_35_6" x1="133.159" y1="548.286" x2="204.486" y2="701.164" gradientUnits="userSpaceOnUse">
<stop stop-color="#DBFD00"/>
<stop offset="1" stop-color="#DBFD00" stop-opacity="0.56"/>
</linearGradient>
<linearGradient id="paint5_linear_35_6" x1="133.159" y1="589.425" x2="276.559" y2="780.872" gradientUnits="userSpaceOnUse">
<stop stop-color="#DBFD00"/>
<stop offset="1" stop-color="#DBFD00" stop-opacity="0.56"/>
</linearGradient>
<linearGradient id="paint6_linear_35_6" x1="651.966" y1="548.286" x2="723.293" y2="701.164" gradientUnits="userSpaceOnUse">
<stop stop-color="#DBFD00"/>
<stop offset="1" stop-color="#DBFD00" stop-opacity="0.56"/>
</linearGradient>
<linearGradient id="paint7_linear_35_6" x1="651.966" y1="589.425" x2="795.366" y2="780.872" gradientUnits="userSpaceOnUse">
<stop stop-color="#DBFD00"/>
<stop offset="1" stop-color="#DBFD00" stop-opacity="0.56"/>
</linearGradient>
<linearGradient id="paint8_linear_35_6" x1="133.159" y1="253.876" x2="204.478" y2="406.747" gradientUnits="userSpaceOnUse">
<stop stop-color="#DBFD00"/>
<stop offset="1" stop-color="#DBFD00" stop-opacity="0.56"/>
</linearGradient>
<linearGradient id="paint9_linear_35_6" x1="133.159" y1="295.019" x2="276.555" y2="486.465" gradientUnits="userSpaceOnUse">
<stop stop-color="#DBFD00"/>
<stop offset="1" stop-color="#DBFD00" stop-opacity="0.56"/>
</linearGradient>
<linearGradient id="paint10_linear_35_6" x1="651.974" y1="253.876" x2="723.294" y2="406.747" gradientUnits="userSpaceOnUse">
<stop stop-color="#DBFD00"/>
<stop offset="1" stop-color="#DBFD00" stop-opacity="0.56"/>
</linearGradient>
<linearGradient id="paint11_linear_35_6" x1="651.966" y1="295.022" x2="795.359" y2="486.467" gradientUnits="userSpaceOnUse">
<stop stop-color="#DBFD00"/>
<stop offset="1" stop-color="#DBFD00" stop-opacity="0.56"/>
</linearGradient>
<linearGradient id="paint12_linear_35_6" x1="302.661" y1="676.431" x2="353.671" y2="772.213" gradientUnits="userSpaceOnUse">
<stop stop-color="#DBFD00"/>
<stop offset="1" stop-color="#DBFD00" stop-opacity="0.56"/>
</linearGradient>
<linearGradient id="paint13_linear_35_6" x1="219.199" y1="436.536" x2="253.92" y2="441.612" gradientUnits="userSpaceOnUse">
<stop stop-color="#DBFD00"/>
<stop offset="1" stop-color="#DBFD00" stop-opacity="0.56"/>
</linearGradient>
<linearGradient id="paint14_linear_35_6" x1="302.661" y1="259.548" x2="353.691" y2="355.344" gradientUnits="userSpaceOnUse">
<stop stop-color="#DBFD00"/>
<stop offset="1" stop-color="#DBFD00" stop-opacity="0.56"/>
</linearGradient>
<linearGradient id="paint15_linear_35_6" x1="562.062" y1="259.541" x2="613.1" y2="355.345" gradientUnits="userSpaceOnUse">
<stop stop-color="#DBFD00"/>
<stop offset="1" stop-color="#DBFD00" stop-opacity="0.56"/>
</linearGradient>
<linearGradient id="paint16_linear_35_6" x1="738.015" y1="436.536" x2="772.735" y2="441.612" gradientUnits="userSpaceOnUse">
<stop stop-color="#DBFD00"/>
<stop offset="1" stop-color="#DBFD00" stop-opacity="0.56"/>
</linearGradient>
<linearGradient id="paint17_linear_35_6" x1="562.062" y1="676.425" x2="613.076" y2="772.217" gradientUnits="userSpaceOnUse">
<stop stop-color="#DBFD00"/>
<stop offset="1" stop-color="#DBFD00" stop-opacity="0.56"/>
</linearGradient>
<linearGradient id="paint18_linear_35_6" x1="357.659" y1="361.198" x2="622.02" y2="634.295" gradientUnits="userSpaceOnUse">
<stop stop-color="#DBFD00"/>
<stop offset="1" stop-color="#DBFD00" stop-opacity="0.56"/>
</linearGradient>
<linearGradient id="paint19_linear_35_6" x1="407.449" y1="439.327" x2="513.871" y2="595.673" gradientUnits="userSpaceOnUse">
<stop stop-color="#DBFD00"/>
<stop offset="1" stop-color="#DBFD00" stop-opacity="0.56"/>
</linearGradient>
<clipPath id="clip0_35_6">
<rect width="1000" height="1000" fill="white"/>
</clipPath>
</defs>
</svg>
