<svg width="800" height="800" viewBox="0 0 800 800" fill="none" xmlns="http://www.w3.org/2000/svg">
<g clip-path="url(#clip0_6_8)">
<rect width="800" height="800" fill="#101010"/>
<g clip-path="url(#clip1_6_8)">
<circle cx="1.5" cy="1.5" r="1.5" fill="white" fill-opacity="0.4"/>
<circle cx="104.5" cy="1.5" r="1.5" fill="white" fill-opacity="0.4"/>
<circle cx="207.5" cy="1.5" r="1.5" fill="white" fill-opacity="0.4"/>
<circle cx="310.5" cy="1.5" r="1.5" fill="white" fill-opacity="0.4"/>
<circle cx="413.5" cy="1.5" r="1.5" fill="white" fill-opacity="0.4"/>
<circle cx="516.5" cy="1.5" r="1.5" fill="white" fill-opacity="0.4"/>
<circle cx="619.5" cy="1.5" r="1.5" fill="white" fill-opacity="0.4"/>
<circle cx="722.5" cy="1.5" r="1.5" fill="white" fill-opacity="0.4"/>
<circle cx="1.5" cy="104.5" r="1.5" fill="white" fill-opacity="0.4"/>
<circle cx="104.5" cy="104.5" r="1.5" fill="white" fill-opacity="0.4"/>
<circle cx="207.5" cy="104.5" r="1.5" fill="white" fill-opacity="0.4"/>
<circle cx="310.5" cy="104.5" r="1.5" fill="white" fill-opacity="0.4"/>
<circle cx="413.5" cy="104.5" r="1.5" fill="white" fill-opacity="0.4"/>
<circle cx="516.5" cy="104.5" r="1.5" fill="white" fill-opacity="0.4"/>
<circle cx="619.5" cy="104.5" r="1.5" fill="white" fill-opacity="0.4"/>
<circle cx="722.5" cy="104.5" r="1.5" fill="white" fill-opacity="0.4"/>
<circle cx="1.5" cy="207.5" r="1.5" fill="white" fill-opacity="0.4"/>
<circle cx="104.5" cy="207.5" r="1.5" fill="white" fill-opacity="0.4"/>
<circle cx="207.5" cy="207.5" r="1.5" fill="white" fill-opacity="0.4"/>
<circle cx="310.5" cy="207.5" r="1.5" fill="white" fill-opacity="0.4"/>
<circle cx="413.5" cy="207.5" r="1.5" fill="white" fill-opacity="0.4"/>
<circle cx="516.5" cy="207.5" r="1.5" fill="white" fill-opacity="0.4"/>
<circle cx="619.5" cy="207.5" r="1.5" fill="white" fill-opacity="0.4"/>
<circle cx="722.5" cy="207.5" r="1.5" fill="white" fill-opacity="0.4"/>
<circle cx="1.5" cy="310.5" r="1.5" fill="white" fill-opacity="0.4"/>
<circle cx="104.5" cy="310.5" r="1.5" fill="white" fill-opacity="0.4"/>
<circle cx="207.5" cy="310.5" r="1.5" fill="white" fill-opacity="0.4"/>
<circle cx="310.5" cy="310.5" r="1.5" fill="white" fill-opacity="0.4"/>
<circle cx="413.5" cy="310.5" r="1.5" fill="white" fill-opacity="0.4"/>
<circle cx="516.5" cy="310.5" r="1.5" fill="white" fill-opacity="0.4"/>
<circle cx="619.5" cy="310.5" r="1.5" fill="white" fill-opacity="0.4"/>
<circle cx="722.5" cy="310.5" r="1.5" fill="white" fill-opacity="0.4"/>
<circle cx="1.5" cy="413.5" r="1.5" fill="white" fill-opacity="0.4"/>
<circle cx="104.5" cy="413.5" r="1.5" fill="white" fill-opacity="0.4"/>
<circle cx="207.5" cy="413.5" r="1.5" fill="white" fill-opacity="0.4"/>
<circle cx="310.5" cy="413.5" r="1.5" fill="white" fill-opacity="0.4"/>
<circle cx="413.5" cy="413.5" r="1.5" fill="white" fill-opacity="0.4"/>
<circle cx="516.5" cy="413.5" r="1.5" fill="white" fill-opacity="0.4"/>
<circle cx="619.5" cy="413.5" r="1.5" fill="white" fill-opacity="0.4"/>
<circle cx="722.5" cy="413.5" r="1.5" fill="white" fill-opacity="0.4"/>
<circle cx="1.5" cy="516.5" r="1.5" fill="white" fill-opacity="0.4"/>
<circle cx="104.5" cy="516.5" r="1.5" fill="white" fill-opacity="0.4"/>
<circle cx="207.5" cy="516.5" r="1.5" fill="white" fill-opacity="0.4"/>
<circle cx="310.5" cy="516.5" r="1.5" fill="white" fill-opacity="0.4"/>
<circle cx="413.5" cy="516.5" r="1.5" fill="white" fill-opacity="0.4"/>
<circle cx="516.5" cy="516.5" r="1.5" fill="white" fill-opacity="0.4"/>
<circle cx="619.5" cy="516.5" r="1.5" fill="white" fill-opacity="0.4"/>
<circle cx="722.5" cy="516.5" r="1.5" fill="white" fill-opacity="0.4"/>
<circle cx="1.5" cy="619.5" r="1.5" fill="white" fill-opacity="0.4"/>
<circle cx="104.5" cy="619.5" r="1.5" fill="white" fill-opacity="0.4"/>
<circle cx="207.5" cy="619.5" r="1.5" fill="white" fill-opacity="0.4"/>
<circle cx="310.5" cy="619.5" r="1.5" fill="white" fill-opacity="0.4"/>
<circle cx="413.5" cy="619.5" r="1.5" fill="white" fill-opacity="0.4"/>
<circle cx="516.5" cy="619.5" r="1.5" fill="white" fill-opacity="0.4"/>
<circle cx="619.5" cy="619.5" r="1.5" fill="white" fill-opacity="0.4"/>
<circle cx="722.5" cy="619.5" r="1.5" fill="white" fill-opacity="0.4"/>
<circle cx="1.5" cy="722.5" r="1.5" fill="white" fill-opacity="0.4"/>
<circle cx="104.5" cy="722.5" r="1.5" fill="white" fill-opacity="0.4"/>
<circle cx="207.5" cy="722.5" r="1.5" fill="white" fill-opacity="0.4"/>
<circle cx="310.5" cy="722.5" r="1.5" fill="white" fill-opacity="0.4"/>
<circle cx="413.5" cy="722.5" r="1.5" fill="white" fill-opacity="0.4"/>
<circle cx="516.5" cy="722.5" r="1.5" fill="white" fill-opacity="0.4"/>
<circle cx="619.5" cy="722.5" r="1.5" fill="white" fill-opacity="0.4"/>
<circle cx="722.5" cy="722.5" r="1.5" fill="white" fill-opacity="0.4"/>
</g>
<g filter="url(#filter0_d_6_8)">
<circle cx="399.5" cy="399.5" r="234.5" fill="#A6AC5F"/>
</g>
<path d="M277.358 423.466V397.898L356.619 366.151V392.997L306.122 410.469L306.974 409.19V412.173L306.122 410.895L356.619 428.366V455.213L277.358 423.466ZM429.941 340.795L394.785 471.406H369.856L405.012 340.795H429.941ZM522.44 423.466L443.178 455.213V428.366L493.675 410.895L492.823 412.173V409.19L493.675 410.469L443.178 392.997V366.151L522.44 397.898V423.466Z" fill="black"/>
<path d="M-352.881 -263.518L510.916 193.191L208.958 535.897L-352.881 -263.518Z" fill="#DDFF0C" fill-opacity="0.2"/>
<path d="M630.501 399.51C630.496 509.01 551.491 613.006 436.49 630.001C319.309 647.318 259.491 600.993 204.994 536.49C340.001 393.782 469.998 237.998 511.5 192.5C565.999 226.503 626.506 281.51 630.501 399.51Z" fill="#DDFF0C" fill-opacity="0.2"/>
</g>
<defs>
<filter id="filter0_d_6_8" x="-58" y="-58" width="915" height="915" filterUnits="userSpaceOnUse" color-interpolation-filters="sRGB">
<feFlood flood-opacity="0" result="BackgroundImageFix"/>
<feColorMatrix in="SourceAlpha" type="matrix" values="0 0 0 0 0 0 0 0 0 0 0 0 0 0 0 0 0 0 127 0" result="hardAlpha"/>
<feMorphology radius="104" operator="dilate" in="SourceAlpha" result="effect1_dropShadow_6_8"/>
<feOffset/>
<feGaussianBlur stdDeviation="59.5"/>
<feComposite in2="hardAlpha" operator="out"/>
<feColorMatrix type="matrix" values="0 0 0 0 0.65098 0 0 0 0 0.67451 0 0 0 0 0.372549 0 0 0 0.25 0"/>
<feBlend mode="normal" in2="BackgroundImageFix" result="effect1_dropShadow_6_8"/>
<feBlend mode="normal" in="SourceGraphic" in2="effect1_dropShadow_6_8" result="shape"/>
</filter>
<clipPath id="clip0_6_8">
<rect width="800" height="800" fill="white"/>
</clipPath>
<clipPath id="clip1_6_8">
<rect width="800" height="800" fill="white"/>
</clipPath>
</defs>
</svg>
