<svg width="765" height="765" viewBox="0 0 765 765" fill="none" xmlns="http://www.w3.org/2000/svg">
<g clip-path="url(#clip0_8_5)">
<rect width="765" height="765" fill="#0E0517"/>
<g filter="url(#filter0_f_8_5)">
<path fill-rule="evenodd" clip-rule="evenodd" d="M358.301 189C517.583 189 650 307.027 650 456.477C650 587.156 497.577 649 358.301 649C234.604 649 117 572.54 117 456.477C117 319.624 212.446 189 358.301 189Z" fill="url(#paint0_linear_8_5)" fill-opacity="0.6"/>
</g>
<path d="M294.716 284.006C282.739 266.762 293.273 245.733 311.454 235.238L382.5 356.691L453.546 235.238C471.727 245.733 482.261 266.762 470.284 284.006L398.301 383.69L428.655 435.599C439.41 430.121 451.815 428.826 463.47 431.964C475.125 435.103 485.202 442.452 491.752 452.59C498.303 462.729 500.86 474.936 498.931 486.851C497.002 498.766 490.722 509.542 481.307 517.095C471.893 524.649 460.011 528.442 447.961 527.742C435.911 527.042 424.549 521.899 416.072 513.306C407.595 504.714 402.606 493.283 402.069 481.224C401.532 469.166 405.486 457.337 413.166 448.025L382.5 405.538L351.834 448.006C359.514 457.318 363.468 469.147 362.931 481.205C362.394 493.263 357.405 504.694 348.928 513.287C340.451 521.879 329.089 527.023 317.039 527.723C304.989 528.423 293.107 524.629 283.693 517.076C274.278 509.523 267.998 498.746 266.069 486.831C264.14 474.916 266.697 462.709 273.248 452.571C279.798 442.432 289.875 435.083 301.53 431.945C313.185 428.806 325.59 430.101 336.345 435.58L366.699 383.69L294.716 284.006ZM343.485 479.081C343.485 471.321 340.402 463.878 334.915 458.391C329.427 452.903 321.984 449.82 314.224 449.82C306.463 449.82 299.02 452.903 293.533 458.391C288.045 463.878 284.962 471.321 284.962 479.081C284.962 486.842 288.045 494.285 293.533 499.772C299.02 505.26 306.463 508.343 314.224 508.343C321.984 508.343 329.427 505.26 334.915 499.772C340.402 494.285 343.485 486.842 343.485 479.081ZM480.037 479.081C480.037 471.321 476.955 463.878 471.467 458.391C465.98 452.903 458.537 449.82 450.776 449.82C443.016 449.82 435.573 452.903 430.085 458.391C424.598 463.878 421.515 471.321 421.515 479.081C421.515 486.842 424.598 494.285 430.085 499.772C435.573 505.26 443.016 508.343 450.776 508.343C458.537 508.343 465.98 505.26 471.467 499.772C476.955 494.285 480.037 486.842 480.037 479.081Z" fill="url(#paint1_linear_8_5)"/>
</g>
<defs>
<filter id="filter0_f_8_5" x="-109" y="-37" width="985" height="912" filterUnits="userSpaceOnUse" color-interpolation-filters="sRGB">
<feFlood flood-opacity="0" result="BackgroundImageFix"/>
<feBlend mode="normal" in="SourceGraphic" in2="BackgroundImageFix" result="shape"/>
<feGaussianBlur stdDeviation="113" result="effect1_foregroundBlur_8_5"/>
</filter>
<linearGradient id="paint0_linear_8_5" x1="555.3" y1="179.477" x2="402.121" y2="654.998" gradientUnits="userSpaceOnUse">
<stop offset="0.127053" stop-color="#61289A"/>
<stop offset="1" stop-color="#6309BD" stop-opacity="0.3"/>
</linearGradient>
<linearGradient id="paint1_linear_8_5" x1="265.442" y1="381.531" x2="499.558" y2="381.531" gradientUnits="userSpaceOnUse">
<stop stop-color="#1FA2FF"/>
<stop offset="0.5" stop-color="#12D8FA"/>
<stop offset="1" stop-color="#A6FFCB"/>
</linearGradient>
<clipPath id="clip0_8_5">
<rect width="765" height="765" fill="white"/>
</clipPath>
</defs>
</svg>
